<svg xmlns="http://www.w3.org/2000/svg" xmlns:xlink="http://www.w3.org/1999/xlink" width="1920" zoomAndPan="magnify" viewBox="0 0 1440 809.999993" height="1080" preserveAspectRatio="xMidYMid meet" version="1.0"><defs><g/></defs><g fill="#f3ba2f" fill-opacity="1"><g transform="translate(104.864651, 408.599713)"><g><path d="M 408.46875 -268 C 408.46875 -244.40625 402.097656 -223.054688 389.359375 -203.953125 C 376.628906 -184.847656 358.09375 -170.800781 333.75 -161.8125 L 419.703125 0 L 280.375 0 L 211.828125 -141.03125 L 165.75 -141.03125 L 165.75 0 L 41.578125 0 L 41.578125 -386.5625 L 278.125 -386.5625 C 305.84375 -386.5625 329.53125 -381.222656 349.1875 -370.546875 C 368.851562 -359.867188 383.648438 -345.445312 393.578125 -327.28125 C 403.503906 -309.113281 408.46875 -289.351562 408.46875 -268 Z M 282.046875 -262.953125 C 282.046875 -273.066406 278.675781 -281.492188 271.9375 -288.234375 C 265.195312 -294.972656 256.957031 -298.34375 247.21875 -298.34375 L 165.75 -298.34375 L 165.75 -226.984375 L 247.21875 -226.984375 C 256.957031 -226.984375 265.195312 -230.445312 271.9375 -237.375 C 278.675781 -244.3125 282.046875 -252.835938 282.046875 -262.953125 Z M 282.046875 -262.953125 "/></g></g></g><g fill="#f3ba2f" fill-opacity="1"><g transform="translate(679.26002, 401.399869)"><g><path d="M -225.875 393.296875 C -283.175781 393.296875 -328.492188 378.96875 -361.828125 350.3125 C -395.171875 321.664062 -411.84375 280.742188 -411.84375 227.546875 L -293.296875 227.546875 C -293.296875 250.023438 -287.394531 267.816406 -275.59375 280.921875 C -263.789062 294.035156 -247.03125 300.59375 -225.3125 300.59375 C -200.207031 300.59375 -181.753906 292.726562 -169.953125 277 C -158.160156 261.269531 -152.265625 239.359375 -152.265625 211.265625 L -152.265625 175.296875 C -152.265625 147.578125 -158.160156 125.757812 -169.953125 109.84375 C -181.753906 93.925781 -199.832031 85.96875 -224.1875 85.96875 C -248.15625 85.96875 -266.316406 92.144531 -278.671875 104.5 C -291.035156 116.863281 -297.21875 134.285156 -297.21875 156.765625 L -411.84375 156.765625 C -411.84375 103.941406 -395.640625 63.484375 -363.234375 35.390625 C -330.835938 7.296875 -285.050781 -6.75 -225.875 -6.75 C -159.945312 -6.75 -110.03125 10.101562 -76.125 43.8125 C -42.226562 77.53125 -25.28125 127.351562 -25.28125 193.28125 C -25.28125 259.207031 -42.226562 309.023438 -76.125 342.734375 C -110.03125 376.441406 -159.945312 393.296875 -225.875 393.296875 Z M -225.875 393.296875 "/></g></g></g><g fill="#000000" fill-opacity="1"><g transform="translate(508.391065, 336.190633)"><g><path d="M 80.3125 -135.125 C 100.5 -135.125 116.929688 -131.742188 129.609375 -124.984375 C 142.285156 -118.222656 148.625 -107.253906 148.625 -92.078125 L 148.625 -40.53125 C 148.625 -37.695312 149.289062 -35.363281 150.625 -33.53125 C 151.96875 -31.695312 153.972656 -30.78125 156.640625 -30.78125 L 165.640625 -30.78125 L 165.640625 -2 C 165.140625 -1.664062 163.847656 -1.125 161.765625 -0.375 C 159.679688 0.375 156.71875 1.125 152.875 1.875 C 149.039062 2.625 144.625 3 139.625 3 C 129.945312 3 121.976562 1.539062 115.71875 -1.375 C 109.46875 -4.289062 105.175781 -8.335938 102.84375 -13.515625 C 96.5 -8.503906 89.40625 -4.5 81.5625 -1.5 C 73.726562 1.5 64.554688 3 54.046875 3 C 23.015625 3 7.5 -9.34375 7.5 -34.03125 C 7.5 -46.875 10.960938 -56.671875 17.890625 -63.421875 C 24.816406 -70.179688 34.785156 -74.8125 47.796875 -77.3125 C 60.804688 -79.820312 77.820312 -81.078125 98.84375 -81.078125 L 98.84375 -87.578125 C 98.84375 -92.742188 97.046875 -96.660156 93.453125 -99.328125 C 89.867188 -102.003906 85.238281 -103.34375 79.5625 -103.34375 C 74.394531 -103.34375 69.929688 -102.421875 66.171875 -100.578125 C 62.421875 -98.742188 60.546875 -95.828125 60.546875 -91.828125 L 60.546875 -90.828125 L 11.515625 -90.828125 C 11.347656 -91.660156 11.265625 -92.828125 11.265625 -94.328125 C 11.265625 -106.835938 17.226562 -116.765625 29.15625 -124.109375 C 41.082031 -131.453125 58.132812 -135.125 80.3125 -135.125 Z M 98.84375 -57.546875 C 84.65625 -57.546875 74.179688 -56.003906 67.421875 -52.921875 C 60.671875 -49.835938 57.296875 -45.707031 57.296875 -40.53125 C 57.296875 -32.195312 62.96875 -28.03125 74.3125 -28.03125 C 80.820312 -28.03125 86.535156 -29.78125 91.453125 -33.28125 C 96.378906 -36.78125 98.84375 -41.117188 98.84375 -46.296875 Z M 98.84375 -57.546875 "/></g></g></g><g fill="#000000" fill-opacity="1"><g transform="translate(697.303973, 336.190633)"><g><path d="M 75.5625 -33.78125 L 133.859375 -33.78125 L 133.859375 0 L 5 0 L 5 -16.265625 L 60.546875 -98.34375 L 8 -98.34375 L 8 -132.109375 L 131.609375 -132.109375 L 131.609375 -116.609375 Z M 75.5625 -33.78125 "/></g></g></g><g fill="#000000" fill-opacity="1"><g transform="translate(858.442941, 336.190633)"><g><path d="M 83.328125 -135.125 C 106.515625 -135.125 124.738281 -129.242188 138 -117.484375 C 151.257812 -105.722656 157.890625 -88.582031 157.890625 -66.0625 C 157.890625 -43.539062 151.257812 -26.398438 138 -14.640625 C 124.738281 -2.878906 106.515625 3 83.328125 3 C 60.140625 3 41.957031 -2.835938 28.78125 -14.515625 C 15.601562 -26.191406 9.015625 -43.375 9.015625 -66.0625 C 9.015625 -88.75 15.601562 -105.929688 28.78125 -117.609375 C 41.957031 -129.285156 60.140625 -135.125 83.328125 -135.125 Z M 83.328125 -101.34375 C 66.972656 -101.34375 58.796875 -91.914062 58.796875 -73.0625 L 58.796875 -58.796875 C 58.796875 -40.117188 66.972656 -30.78125 83.328125 -30.78125 C 99.835938 -30.78125 108.09375 -40.117188 108.09375 -58.796875 L 108.09375 -73.0625 C 108.09375 -91.914062 99.835938 -101.34375 83.328125 -101.34375 Z M 83.328125 -101.34375 "/></g></g></g><g fill="#000000" fill-opacity="1"><g transform="translate(1047.35587, 336.190633)"><g><path d="M 95.328125 -135.375 C 99.171875 -135.375 102.59375 -134.910156 105.59375 -133.984375 C 108.59375 -133.066406 110.09375 -132.523438 110.09375 -132.359375 L 110.09375 -90.578125 L 94.078125 -90.578125 C 83.734375 -90.578125 76.269531 -87.90625 71.6875 -82.5625 C 67.101562 -77.226562 64.8125 -69.304688 64.8125 -58.796875 L 64.8125 0 L 15.015625 0 L 15.015625 -132.109375 L 55.796875 -132.109375 L 59.046875 -112.09375 C 62.054688 -119.769531 66.8125 -125.566406 73.3125 -129.484375 C 79.820312 -133.410156 87.160156 -135.375 95.328125 -135.375 Z M 95.328125 -135.375 "/></g></g></g><g fill="#000000" fill-opacity="1"><g transform="translate(673.68316, 639.577476)"><g><path d="M 64.8125 -118.359375 C 70.144531 -123.691406 76.394531 -127.816406 83.5625 -130.734375 C 90.738281 -133.660156 98.25 -135.125 106.09375 -135.125 C 121.4375 -135.125 132.945312 -130.867188 140.625 -122.359375 C 148.300781 -113.847656 152.140625 -101.585938 152.140625 -85.578125 L 152.140625 0 L 102.34375 0 L 102.34375 -79.5625 C 102.34375 -85.238281 100.878906 -89.785156 97.953125 -93.203125 C 95.035156 -96.628906 90.910156 -98.34375 85.578125 -98.34375 C 79.398438 -98.34375 74.394531 -96.335938 70.5625 -92.328125 C 66.726562 -88.328125 64.8125 -83.40625 64.8125 -77.5625 L 64.8125 0 L 15.015625 0 L 15.015625 -181.40625 L 64.8125 -181.40625 Z M 64.8125 -118.359375 "/></g></g></g><g fill="#000000" fill-opacity="1"><g transform="translate(862.596068, 639.577476)"><g><path d="M 80.3125 -135.125 C 100.5 -135.125 116.929688 -131.742188 129.609375 -124.984375 C 142.285156 -118.222656 148.625 -107.253906 148.625 -92.078125 L 148.625 -40.53125 C 148.625 -37.695312 149.289062 -35.363281 150.625 -33.53125 C 151.96875 -31.695312 153.972656 -30.78125 156.640625 -30.78125 L 165.640625 -30.78125 L 165.640625 -2 C 165.140625 -1.664062 163.847656 -1.125 161.765625 -0.375 C 159.679688 0.375 156.71875 1.125 152.875 1.875 C 149.039062 2.625 144.625 3 139.625 3 C 129.945312 3 121.976562 1.539062 115.71875 -1.375 C 109.46875 -4.289062 105.175781 -8.335938 102.84375 -13.515625 C 96.5 -8.503906 89.40625 -4.5 81.5625 -1.5 C 73.726562 1.5 64.554688 3 54.046875 3 C 23.015625 3 7.5 -9.34375 7.5 -34.03125 C 7.5 -46.875 10.960938 -56.671875 17.890625 -63.421875 C 24.816406 -70.179688 34.785156 -74.8125 47.796875 -77.3125 C 60.804688 -79.820312 77.820312 -81.078125 98.84375 -81.078125 L 98.84375 -87.578125 C 98.84375 -92.742188 97.046875 -96.660156 93.453125 -99.328125 C 89.867188 -102.003906 85.238281 -103.34375 79.5625 -103.34375 C 74.394531 -103.34375 69.929688 -102.421875 66.171875 -100.578125 C 62.421875 -98.742188 60.546875 -95.828125 60.546875 -91.828125 L 60.546875 -90.828125 L 11.515625 -90.828125 C 11.347656 -91.660156 11.265625 -92.828125 11.265625 -94.328125 C 11.265625 -106.835938 17.226562 -116.765625 29.15625 -124.109375 C 41.082031 -131.453125 58.132812 -135.125 80.3125 -135.125 Z M 98.84375 -57.546875 C 84.65625 -57.546875 74.179688 -56.003906 67.421875 -52.921875 C 60.671875 -49.835938 57.296875 -45.707031 57.296875 -40.53125 C 57.296875 -32.195312 62.96875 -28.03125 74.3125 -28.03125 C 80.820312 -28.03125 86.535156 -29.78125 91.453125 -33.28125 C 96.378906 -36.78125 98.84375 -41.117188 98.84375 -46.296875 Z M 98.84375 -57.546875 "/></g></g></g><g fill="#000000" fill-opacity="1"><g transform="translate(1051.508976, 639.577476)"><g><path d="M 16.765625 -147.625 L 16.765625 -181.40625 L 66.5625 -181.40625 L 66.5625 -147.625 Z M 16.765625 0 L 16.765625 -132.109375 L 66.5625 -132.109375 L 66.5625 0 Z M 16.765625 0 "/></g></g></g><g fill="#000000" fill-opacity="1"><g transform="translate(1156.849821, 639.577476)"><g><path d="M 106.09375 -135.125 C 121.4375 -135.125 132.945312 -130.867188 140.625 -122.359375 C 148.300781 -113.847656 152.140625 -101.585938 152.140625 -85.578125 L 152.140625 0 L 102.34375 0 L 102.34375 -79.5625 C 102.34375 -85.238281 100.878906 -89.785156 97.953125 -93.203125 C 95.035156 -96.628906 90.910156 -98.34375 85.578125 -98.34375 C 79.398438 -98.34375 74.394531 -96.335938 70.5625 -92.328125 C 66.726562 -88.328125 64.8125 -83.40625 64.8125 -77.5625 L 64.8125 0 L 15.015625 0 L 15.015625 -132.109375 L 55.796875 -132.109375 L 59.046875 -112.09375 C 64.222656 -119.101562 71.019531 -124.691406 79.4375 -128.859375 C 87.863281 -133.035156 96.75 -135.125 106.09375 -135.125 Z M 106.09375 -135.125 "/></g></g></g><g fill="#000000" fill-opacity="1"><g transform="translate(891.799654, 512.876567)"><g><path d="M 22.359375 0 L 22.359375 -183.109375 L 81.171875 -183.109375 L 81.171875 0 Z M 22.359375 0 "/></g></g></g></svg>